<?xml version="1.0" encoding="UTF-8"?>
<svg id="Layer_1" xmlns="http://www.w3.org/2000/svg" version="1.1" xmlns:xlink="http://www.w3.org/1999/xlink" viewBox="0 0 204.1 204.1">
  <!-- Generator: Adobe Illustrator 29.3.1, SVG Export Plug-In . SVG Version: 2.1.0 Build 151)  -->
  <defs>
    <style>
      .st0, .st1, .st2 {
        fill: #fff;
      }

      .st1 {
        fill-rule: evenodd;
      }

      .st3 {
        fill: none;
      }

      .st4 {
        clip-path: url(#clippath-1);
      }

      .st5 {
        fill: #b5151d;
      }

      .st6 {
        clip-path: url(#clippath-3);
      }

      .st7 {
        clip-path: url(#clippath-2);
      }

      .st8 {
        clip-path: url(#clippath);
      }

      .st2 {
        stroke: #b5151d;
        stroke-miterlimit: 3.9;
        stroke-width: .4px;
      }
    </style>
    <clipPath id="clippath">
      <rect class="st3" x="87.5" y="135.2" width="28.3" height="28.3"/>
    </clipPath>
    <clipPath id="clippath-1">
      <rect class="st3" x="87.5" y="135.2" width="28.3" height="28.3"/>
    </clipPath>
    <clipPath id="clippath-2">
      <rect class="st3" x="87.5" y="135.2" width="28.3" height="28.3"/>
    </clipPath>
    <clipPath id="clippath-3">
      <rect class="st3" x="87.5" y="135.2" width="28.3" height="28.3"/>
    </clipPath>
  </defs>
  <circle class="st2" cx="102.1" cy="102.1" r="101.6"/>
  <g>
    <polygon class="st5" points="87.5 135.2 115.9 135.2 115.9 163.6 87.5 163.6 87.5 135.2"/>
    <g>
      <g class="st8">
        <polyline class="st0" points="107.3 158.6 111.3 163.6 116.7 163.6 110.6 155.7 116.6 149.6 111.1 149.6 106.2 154.7 106.2 149.6 101.3 149.6 101.3 163.7 106.2 163.7 106.2 159.7"/>
      </g>
      <g class="st4">
        <path class="st1" d="M108.5,143.4h3.3c0,1.8-1.5,2.6-2.6,2.7-.7.1-3.7-.2-3.6-3.7,0-3.4,2-4.2,3.5-4.1,1.7.1,2.6.9,2.6,1.4h4.2c-.2-1.8-1.8-4.5-7-4.5s-8.5,3.5-8.5,7.2,3.9,7,8,7,4-1.6,4.6-2v1.7c0,0,3.3,0,3.3,0v-8.7h-7.8v3h0Z"/>
      </g>
      <g class="st7">
        <rect class="st0" x="92.1" y="134.1" width="5.1" height="15.1"/>
      </g>
      <g class="st6">
        <rect class="st0" x="86.9" y="139.8" width="15.2" height="4.8"/>
      </g>
    </g>
  </g>
  <g>
    <g>
      <path class="st5" d="M117.1,180.6h.5c.2-.2.5,0,.7-.2h.6c0-.1.3-.1.5-.2h.4c.2-.2.4,0,.6-.2.8-.2,1.6-.4,2.4-.6,1.3-.4,2.6-.8,4-1.2.3-.1.6-.3.9-.2,0-.1.3-.1.4-.2.5-.1,1-.4,1.6-.6.8-.2,1.5-.7,2.3-.9.3-.2.6-.2.9-.4.5-.2,1-.4,1.5-.7,1.2-.6,2.4-1.1,3.6-1.8.2-.1.4-.3.7-.3,2.1-1.1,4.2-2.4,6.2-3.7.1-.1.2-.1.3-.2.4-.3.8-.5,1.1-.8,1.2-.9,2.4-1.7,3.6-2.6.9-.7,1.9-1.4,2.7-2.2,1.2-1,2.4-2.1,3.5-3.2,1.5-1.4,2.9-2.9,4.3-4.4,1.4-1.6,2.8-3.2,4.1-5,1.2-1.6,2.3-3.2,3.4-4.9.1-.1.1-.2.2-.3h0c.1-.2.2-.3.2-.5.7-1,1.2-2,1.9-3,.4-.6.7-1.4,1.1-1.9.1-.1.1-.3.2-.4.1-.2.2-.5.3-.7.9-1.5,1.5-3.1,2.2-4.6.5-1.1,1-2.3,1.4-3.5.1-.1.1-.3.2-.5,0-.2.1-.3.1-.5.1-.3.2-.7.4-1,.1-.1.1-.2.2-.4,0-.3.2-.6.2-.9.1-.2.1-.3.2-.5,0-.3.2-.6.2-1,.1-.2.1-.4.2-.6,0-.3.1-.5.2-.8.1-.2.1-.4.1-.6.2-.8.5-1.6.6-2.4h0c.2-.2.1-.5.2-.7,0-.4.2-.8.2-1.2.2-.2.1-.5.2-.7,0-.3,0-.6.1-.8.1-.3.1-.7.2-1.1.3-.3.2-.6.2-.9h0c.2-.3,0-.6.2-.9,0-.9.2-1.7.3-2.6.1-1,.2-2,.3-3,.2-1.2.2-2.4.3-3.6.1-3.1.1-6.3-.1-9.4-.1-1.3-.3-2.7-.4-4v-.2c-.2-1-.3-2-.4-2.9,0-.3,0-.5-.2-.7,0-.7-.2-1.4-.3-2.1-.1-.5-.2-1-.3-1.4-.1-.5-.3-1-.3-1.6-.1-.2,0-.5-.2-.7-.1-.4-.2-.7-.3-1.1-.2-.7-.3-1.4-.6-2.1-.2-.6-.4-1.3-.5-1.9-.1,0-.1-.3-.2-.4v-.2c-.1,0,0-.2-.1-.2-.1,0,0-.2-.1-.2,0-.3-.3-.6-.2-1-.1,0-.1-.3-.2-.4h0c-.1-.3,0-.5-.2-.7-.2-.4-.4-.8-.5-1.2-.5-1.3-1.1-2.6-1.6-3.9-.1,0-.1-.3-.2-.4-.2-.3-.4-.7-.5-1.1-.1,0-.1-.2-.2-.4-1.3-2.7-2.8-5.4-4.4-8-.1,0-.1-.2-.2-.3-.1,0-.1-.2-.2-.3s-.1-.2-.2-.3c-.2-.4-.5-.8-.8-1.2-1-1.5-2.1-3-3.2-4.4-1.4-1.8-2.9-3.5-4.4-5.2-1-1.1-2-2.1-3.1-3.1-2-2-4.1-3.8-6.4-5.5-1.2-.9-2.4-1.8-3.6-2.7-1.5-1-3-2-4.6-2.9-.7-.4-1.4-.9-2.2-1.3-.1,0-.3,0-.4-.2h0c-.1,0-.2,0-.4-.2-.2,0-.4-.2-.6-.2-.1,0-.2-.2-.4-.2-.1,0-.3-.2-.4-.2-.1,0-.2-.2-.3-.3-1-.4-2-1-3.1-1.4-.1,0-.2-.1-.4-.2-.2,0-.4-.2-.6-.2-.1-.1-.3-.2-.4-.2h0c-.2-.1-.4-.2-.6-.3-.9-.4-1.9-.8-2.9-1.1h-.2c-.1-.1-.2-.1-.4-.2h-.3s-.4-.2-1-.4h-.2c-1.5-.5-3.8-1.2-3.9-1.2,0,.1,0,.2,0,.2s.7.2,1.6.5h0c1.6.6,3.8,1.4,4,1.4.1.1.2.1.3.2.8.3,1.6.7,2.4,1,.2.1.4.3.7.3.1.1.3.2.5.2.3.2.6.4,1,.5.1,0,.2.1.2.2h.3c.6.3,1.3.7,1.9,1,.4.2.7.5,1.2.5.1,0,.3.2.4.3.4.2.8.4,1.1.7h.1c.1,0,.2,0,.3.2h.2c1.7,1,3.4,2.1,5,3.2.1,0,.2,0,.3.2.6.4,1.2.8,1.8,1.2.1,0,.1.2.2.2h0c.1,0,.2.2.3.2.2.2.4.3.6.5.1,0,.1.2.2.2h.1q.1,0,.2.2h.1c1.1.9,2.2,1.7,3.2,2.6.8.7,1.6,1.4,2.3,2.1.9.8,1.7,1.6,2.5,2.5.8.8,1.6,1.6,2.3,2.4,1.3,1.5,2.6,3,3.8,4.6.9,1.2,1.8,2.3,2.6,3.5.1,0,.1.2.2.3.4.6.8,1.1,1.1,1.7.1,0,.1.3.2.3.1,0,.2.2.2.3.5,1,1.1,1.8,1.6,2.8.1,0,.1.2.2.3,1.1,2,2.1,4,3,6,.5,1.2,1.1,2.4,1.5,3.6.2.5.5,1.1.6,1.7.1,0,.1.3.2.5.1.4.3.8.4,1.2.4,1.2.8,2.4,1.1,3.7.1.4.3.9.4,1.3.1.2.1.4.2.6,0,.2.1.4.1.6.1.6.4,1.1.4,1.7.2.2,0,.6.2.8.1.5.3.9.2,1.4.1.2,0,.5.2.7,0,.6.3,1.1.2,1.6.1.4,0,.8.2,1.2,0,.3,0,.6.1.9.3,1,.3,2.1.4,3.2.2,2.1.3,4.1.3,6.2s0,3.8-.2,5.7c-.1.7-.1,1.4-.1,2.2-.1,1.2-.3,2.3-.4,3.5-.2.3-.1.7-.2,1v.6c-.2.3-.1.6-.2.9v.2c-.2.2-.1.5-.2.8.1.5-.2,1-.2,1.5-.1.2-.1.6-.2.8,0,.3-.1.5-.1.8-.1.5-.3.9-.3,1.4-.1.2-.1.5-.2.7,0,.4-.2.7-.3,1-.1.6-.3,1.2-.5,1.9-.3,1.1-.7,2.1-1.1,3.2-.3.9-.7,1.9-1.1,2.8-.4,1-.9,2.1-1.3,3.1-.1.1-.1.2-.2.3-.5,1.3-1.1,2.4-1.8,3.6-.6,1.2-1.3,2.4-2,3.6-.6.9-1.1,1.9-1.8,2.8-.1.1-.1.2-.2.3h0c-.1.2-.1.3-.2.4-.5.7-1,1.4-1.5,2.1-.6.9-1.3,1.8-2,2.7-.3.2-.5.5-.7.8-.6.7-1.1,1.3-1.7,2-.2.1-.2.2-.2.3-.9,1-1.8,1.9-2.7,2.9-.3.5-.8.8-1.2,1.2-.2.3-.5.4-.7.6-1.4,1.5-3.1,2.9-4.6,4.2-1.4,1.2-3,2.3-4.5,3.4-1.9,1.3-3.8,2.5-5.7,3.6-1.3.7-2.6,1.4-3.9,2.1-.6.3-1.1.6-1.7.8-.1.1-.2.1-.4.2-.2.1-.4.2-.6.3-1.2.5-2.4,1-3.6,1.5-.3.1-.6.3-1,.3-.1.1-.3.1-.4.2h0c-.2.1-.4,0-.6.2-.5.2-.9.4-1.4.5-.6.2-1.2.4-1.8.6-.7.2-1.3.5-2,.5,0,.1-.2.1-.4.2h-.4c0,.1-.3.1-.5.2h-.4c0,.1-.3.1-.5.2h-.5c0,.1-.3.1-.5.2h-.3c-.2.1-.6,0-.8.2-.8.2-1.7.4-2.5.6-.4.2-.9.1-1.3.2-.5.1-.9.2-1.4.2-.3-.1-.6.1-.9.2-.6-.1-1.2.1-1.8.2-.6.1-1.3.1-1.9.2-1.1.1-2.3,0-3.4.3-.5.1-1,0-1.5,0h-1.2v4.9c1.4,0,2.9,0,4.3-.2s2.9-.2,4.3-.4c.2-.1.3-.1.5-.1.8,0,1.5-.2,2.2-.3.3,0,.6,0,.8-.1.8-.1,1.6-.3,2.4-.4.5.3.7.3.8.2ZM132.1,30h0q0,0,0,0t0,0h0ZM136.9,32.4c.1,0,.1,0,0,0,.1,0,.1,0,0,0h0Z"/>
      <path class="st5" d="M196.2,112.8c-.1,0-.3,0-.4,0-.4.2-.8.3-1.2.4-.1,0-.3,0-.5.2-.4.2-.9.3-1.3.6-1.5.7-3,1.6-4.3,2.7-.1,0-.2,0-.2.2-.2,0-.4.3-.5.4-1.4,1.1-2.6,2.4-3.8,3.8-.7.8-1.3,1.7-1.9,2.6-.1,0-.1.2-.2.3-.7,1.3-1.5,2.7-2,4.1-.2.6-.5,1.1-.6,1.7-.1.1-.1.3-.2.5,0,.4-.2.9-.3,1.3-.2.7-.4,1.4-.4,2.1s0,.3-.1.5c-.1.4,0,.6.4.5.5-.1.9-.3,1.4-.4,1.2-.4,2.4-.9,3.6-1.5s2.7-1.6,3.9-2.5c1.8-1.4,3.4-3,4.8-4.9.3-.5.6-1,1-1.4.1,0,.1-.3.2-.3h0c.1-.2.1-.3.2-.4.3-.7.7-1.3,1-2,.1,0,.1-.2.2-.4h0c.1-.2.1-.4.2-.6h0c.2-.2.1-.4.2-.5v-.2c.1,0,0-.2.1-.2h0c.1,0,.1-.2.1-.2,0-.2,0-.3.1-.4.3-1.1.6-2.2.6-3.3s0-.4.1-.6c.1-.5.1-1.1.1-1.6,0-.5-.1-.6-.3-.6Z"/>
      <path class="st5" d="M182.4,87.1c-.1.4-.3.7-.3,1.2-.1.2-.1.4-.2.6v.4c-.1.2-.1.5-.2.7v.6c-.2.2-.2.5-.2.8,0,.6-.1,1.2-.2,1.8-.1.8-.1,1.6,0,2.3.1.2,0,.4.1.6,0,.2.1.4.4.2.2,0,.3-.2.5-.3,1.4-.7,2.7-1.5,3.9-2.4,2-1.6,3.8-3.4,5.3-5.6,1.3-1.9,2.4-3.9,3.1-6,.2-.6.5-1.2.6-1.8.2-.2.1-.5.2-.7v-.2c.2-.2,0-.6.2-.8,0-.4,0-.8.1-1.2.2-1.2.2-2.5.1-3.7-.1-.5-.1-1-.1-1.5-.1-.2,0-.5-.2-.7h-.2c-.6.3-1.2.6-1.8,1-1.7,1.1-3.2,2.3-4.6,3.8-1.1,1.2-2.1,2.5-3,3.8-1.7,2.3-2.8,4.6-3.5,7.1Z"/>
      <path class="st5" d="M191.8,134.9h-.3c-1-.1-2,.2-2.9.3-.3,0-.5.1-.7.2h0c-.2,0-.5.1-.7.1-.5.1-.9.3-1.4.4-.1.1-.2.1-.4.2-.8.1-1.5.5-2.2.8-1.5.7-3,1.5-4.4,2.4-2.1,1.5-4,3.2-5.7,5.2-1.5,1.8-2.7,3.7-3.6,5.8-.2.3-.3.8-.5,1.1-.1.2,0,.3.2.3,1.1,0,2.2-.2,3.4-.3.8-.1,1.6-.3,2.4-.4.7-.2,1.5-.4,2.2-.6.2,0,.3,0,.4-.2h.3c.1-.1.2-.1.4-.2.1,0,.2,0,.3-.1,1.2-.6,2.4-1.1,3.5-1.8,1.8-1,3.3-2.2,4.8-3.6.3-.3.6-.6,1-.9.1-.1.1-.2.2-.3.1-.1.1-.2.2-.3.1-.2.3-.4.4-.6.5-.5.8-1.1,1.2-1.6.1-.1.1-.2.2-.4h0c.1-.2.1-.3.2-.4h0c.8-1.5,1.4-3,1.8-4.6.2-.4.1-.5-.3-.5Z"/>
      <path class="st5" d="M164.8,172.7c-1.2-.6-2.4-1-3.7-1.3-.4-.1-.8-.2-1.2-.3-.8-.2-1.6-.3-2.4-.4-1.3-.1-2.5-.1-3.8-.1s-1.6.1-2.4.2c-.7.1-1.4.3-2.1.4-.3,0-.5,0-.7.2h0c-.5-.1-.8.3-1.3.2-.1.1-.2.1-.4.2-.2,0-.3.1-.5.1-.4.1-.8.3-1.2.4-.1.1-.3.1-.4.2-.7.3-1.5.7-2.2,1-.2.2-.6.2-.8.4h-.1c-.1.1-.2.1-.4.2-.5.3-1,.6-1.5.9-.9.6-1.7,1.2-2.5,1.9-.5.4-.5.5.1.8,1.1.5,2.2.9,3.4,1.3,1.4.4,2.8.7,4.2.8.1,0,.2,0,.3.1.3.2.7.2,1,.2h4.2c.3-.2.6,0,.9-.2.7,0,1.3-.3,2-.2.3-.1.6,0,.8-.2.4,0,.7-.2,1.1-.3.6-.2,1.2-.4,1.8-.6.5-.2,1-.5,1.5-.6.1-.1.2-.1.3-.2.2-.1.3-.2.5-.3.5-.2.9-.5,1.4-.8.3,0,.4-.2.6-.3h0c1.1-.7,2-1.5,2.9-2.4s.4-.5.7-.8q.2-.3-.1-.5Z"/>
      <path class="st5" d="M180.8,154.1c-.2-.1-.5-.1-.7-.1-2.2-.2-4.4-.1-6.5.3-.6.1-1.1.3-1.7.4-.2.1-.4.1-.6.2-.2,0-.4.1-.6.1-.4.1-.8.4-1.2.4-.1.1-.3.1-.4.2-.9.4-1.8.7-2.6,1.2-1.4.7-2.8,1.6-4.1,2.5-.2.1-.4.3-.6.4-1.1.9-2.1,1.7-3,2.8-.4.3-.6.8-1,1-.3.4-.6.9-.9,1.3-.4.6-.8,1.2-1.2,1.8-.1.1-.2.2,0,.4s.3.1.5.1h.1c.1.1.3.1.4.1,1,0,2,.2,3,.2s2-.2,2.9-.2h.4c0-.1.1-.1.1-.1.2,0,.3,0,.5-.1h.6c.2-.2.5,0,.7-.2h.4c.1-.1.3-.1.5-.2h.5c.1-.1.4-.1.5-.2,1.2-.4,2.4-.8,3.6-1.4,2.1-.9,4-2.2,5.7-3.7,1.4-1.2,2.6-2.6,3.6-4.2.4-.7.8-1.5,1.2-2.2.4-.7.3-.8,0-.8Z"/>
      <path class="st5" d="M198.1,94.8v-2.5c-.1-.4,0-.8-.1-1.2,0-.2,0-.4-.1-.6-.2-.8-.3-.8-1-.4-.9.6-1.9,1.2-2.8,1.8-.1,0-.2,0-.3.2-.2,0-.3.3-.5.4-.4.4-.9.7-1.3,1.2-.1,0-.2,0-.3.2-.7.7-1.3,1.5-2,2.2-.1,0-.1.2-.2.3-.8.9-1.4,1.9-2,2.9-.4.7-.7,1.4-1.1,2.1-.5,1.1-1,2.2-1.3,3.3-.2,0-.1.3-.2.4-.1.8-.4,1.5-.5,2.3-.2.9-.4,1.7-.4,2.6v.4c-.3,1.2-.2,2.4-.1,3.6,0,.4.2.5.6.3.7-.4,1.5-.7,2.2-1.2.4,0,.6-.3.9-.6.3-.2.6-.4.9-.7.1,0,.2,0,.3-.2.6-.5,1.3-1.1,1.9-1.6,1.3-1.3,2.5-2.6,3.5-4.1.8-1.2,1.6-2.5,2.2-3.8.4-1,.9-2.1,1.2-3.1s.6-2.1.6-3.1c0-.3-.2-.7,0-1.1h0Z"/>
      <path class="st5" d="M142.7,184.6c-.7-.5-1.4-.9-2.1-1.3-.3-.2-.6-.4-1-.4-.1-.2-.2-.2-.4-.2h-.1c-.1,0-.2-.1-.4-.2-.8-.3-1.5-.6-2.3-.8-.5-.1-1-.4-1.6-.4-.1-.1-.3-.1-.5-.2-.8-.1-1.7-.2-2.5-.5-1.1.1-2.1-.2-3.2-.2s-1.4.2-2.2.2h-1.4c-.3.2-.7-.1-1,.2-1.1.2-2.2.5-3.3.8-.5.1-1,.3-1.5.5-.8.3-1.7.7-2.5,1.1,0,.1-.2.1-.3.2-.7.4-1.4.6-2,1.2.4.5.9.8,1.4,1.1,1.5.9,3,1.7,4.6,2.3.5.2,1.1.4,1.7.5,0,.1.2.1.4.2h.4c0,.1.3.1.5.2.2,0,.5,0,.8.1.9.2,1.7.4,2.6.4.2.1.4.1.7.2h4.2c.1,0,.1-.1.2-.1h.3c.3-.1.6,0,.8-.1h.3c.4-.2.8-.1,1.1-.2h0c.1-.2.4,0,.6-.2.5,0,.8-.3,1.3-.3.1-.1.3-.1.5-.2,2.3-.8,4.4-1.9,6.1-3.5,0-.2-.1-.3-.2-.4Z"/>
      <path class="st5" d="M170.1,53.4c.1.6.1,1.2.2,1.7.1.4.2.8.3,1.3.1.7.3,1.4.5,2,.4,1.3.9,2.5,1.6,3.7.4.8.8,1.5,1.3,2.2,0,0,.1.2.2.2s.2,0,.2-.2c.1-.2.2-.3.3-.4.2-.4.4-.7.6-1.1h0c.1,0,.2-.2.2-.3s.1-.2.1-.3c.8-1.6,1.3-3.2,1.8-5,.3-1.3.4-2.5.6-3.8v-.5c0-1.4,0-2.9-.2-4.3-.3-1.8-.7-3.5-1.4-5.2s-1.7-3.3-3-4.6c-.1,0-.3,0-.4,0-.2.4-.4.7-.6,1.1-.5,1-1,1.9-1.3,3-.1,0-.1.2-.2.3v.2c-.1,0-.1.3-.2.5v.2c-.1.2-.1.5-.2.7,0,.2,0,.4-.1.6-.1.3-.2.5-.1.8-.1.3-.2.6-.2.9,0,.9-.3,1.7-.2,2.6,0,1.3-.1,2.5.2,3.7Z"/>
      <path class="st5" d="M178.9,77.8v.4c.2.2.1.5.2.7.1.5.2.9.4,1.4.1.3.2.3.5,0,1.4-1.3,2.7-2.7,3.8-4.2.6-1,1.2-2,1.8-3,.1,0,.1-.3.2-.4.3-.6.5-1.3.8-1.9.1,0,.1-.3.2-.5v-.2c.1-.2.1-.5.2-.7h0c.2-.2.1-.4.2-.6,0-.5.3-1,.2-1.5.1-.2.1-.5.2-.7v-.8c.2-.3,0-.8.2-1.1v-1.8c0-.5.1-1-.1-1.4-.2-.7-.2-1.4-.3-2-.1-.5-.2-.9-.3-1.4-.1,0-.1-.3-.2-.5-.2-.7-.5-1.4-.8-2.1-.2-.3-.3-.4-.6,0-.5.4-.9.9-1.4,1.4-.8.9-1.6,2-2.3,3-.1,0-.1.2-.2.4,0,.2-.1.3-.2.4-.1,0-.1.3-.2.4-.6,1.2-1.2,2.4-1.6,3.7-.2.6-.4,1.2-.5,1.8-.1.2-.1.5-.2.7v.4c-.2.2,0,.5-.2.7v.7c-.2.3-.2.7-.2,1,0,.7-.1,1.4-.1,2.1,0,1.6,0,3.2.3,4.8.2.3,0,.6.2.8Z"/>
      <path class="st5" d="M158.8,41.7c.2.6.4,1.2.6,1.8.1,0,.1.3.2.4.3.8.7,1.6,1.1,2.3.1.2.2.5.4.7.1,0,.1.3.2.4.8,1.2,1.7,2.4,2.7,3.4.4.4.8.7,1.2,1.1.2.2.3.2.5-.2.1-.2.1-.4.2-.6,0-.4.2-.7.2-1,.1-.8.3-1.5.4-2.3.3-2.3,0-4.5-.4-6.8-.2-.9-.5-1.8-.8-2.7-.6-1.6-1.4-3-2.3-4.3-.9-1.3-2-2.4-3.3-3.3-.3-.2-.6-.4-.9-.5,0,.1-.1.1-.1.2-.5,1.7-.8,3.5-.8,5.3s.1,2.6.3,3.8c.2.8.3,1.6.6,2.3Z"/>
      <path class="st5" d="M130,16.7c.1,1,.4,2,.7,3.1.2.7.5,1.4.8,2.2.1.1.1.3.2.5,0,.2.2.3.2.4.7,1.5,1.6,2.8,2.6,4.1.4.5.8,1,1.2,1.4.2.2.4.3.5.5,0,0,.1,0,.1.1.9.8,1.8,1.6,2.8,2.2.1.1.3.1.3.2,1,.7,2,1.2,3.1,1.7.3,0,.6.4.9.2.2-.2.1-.6.1-1h0c-.2-.9-.2-1.9-.4-2.9-.1-.1-.1-.3-.1-.4s0-.2-.1-.4v-.2c-.1-.1-.1-.3-.2-.5-.2-.7-.4-1.4-.7-2.1-.9-2.1-2-4-3.5-5.7-1.3-1.5-2.8-2.8-4.5-3.8-.1-.1-.2-.1-.4-.2h-.1c-.2-.2-.6-.2-.8-.4-.9-.4-1.7-.7-2.6-.9-.2-.1-.4,0-.4.2v.7c.2.4.3.7.3,1Z"/>
      <path class="st5" d="M162.8,129.1c-.6-1.4-1.5-2.7-2.4-3.9-.2-.3-.4-.3-.6,0-.5.9-.9,1.8-1.2,2.8s-.6,2-.8,3-.3,2-.4,3c0,1.1,0,2.3.1,3.4.1.7.2,1.4.4,2.1.2.9.5,1.8.8,2.7.6,1.5,1.3,2.9,2.2,4.1.5.7.4.9,1.1,0,.1-.1.1-.2.2-.3.1-.1.1-.2.2-.3.1-.1.1-.2.2-.4.1-.2.2-.3.2-.5.4-.9.8-1.8,1.1-2.8.3-1.2.6-2.4.6-3.6s0-2.3-.2-3.5c-.2-1.1-.4-2.1-.7-3.1-.1-1.1-.5-2-.8-2.8Z"/>
      <path class="st5" d="M119.2,168.1c0,.1,0,.3-.2.5-.2.4-.3.8-.5,1.2s0,.4-.2.6c0,.4-.2.7-.2,1.1,0,.1,0,.2,0,.4h0s0,0,0,.1v.4c0,.3,0,.6,0,.9-.2.5,0,1.1,0,1.6s0,.2.2.2c0-.1.3-.1.5-.2h.4c0-.1.3-.1.5-.2.6-.2,1.3-.4,1.9-.8,2.4-1.3,4.3-3,5.9-5.2,1.2-1.7,2.2-3.6,2.8-5.5.1-.2.1-.4.2-.6,0-.3.2-.6.2-.9.1-.7.3-1.4.4-2.1.1-.7.1-1.3.1-2s-.1-.3-.3-.2-.4.1-.6.2c-2,.8-3.7,2-5.3,3.3-.8.7-1.6,1.5-2.3,2.3,0,0,0,.1,0,.2h0c0,0-.2.1-.2.2h0c-1.1,1.3-2,2.9-2.8,4.5Z"/>
      <path class="st5" d="M170.4,125.7c0-.3,0-.7-.1-1-.2-.9-.4-1.8-.6-2.7-.3-1.1-.7-2.1-1.2-3.1-.7-1.3-1.5-2.6-2.5-3.8-.1,0-.1-.2-.2-.3-.9-1.1-2-2.1-3.2-3-.1,0-.2-.3-.4,0,0,.2,0,.4-.1.6-.2.7-.3,1.3-.3,2-.1,1.5-.1,3,0,4.5,0,.3,0,.6.2.9h0c-.1.6.3,1.2.3,1.8.1,0,.1.3.2.5v.2c.1,0,.1.3.2.5v.3c.1,0,.1.3.2.5.7,2,1.7,3.9,3,5.6.1.2.2.4.4.6,1.2,1.4,2.6,2.7,3.2,2.9.3-.4.4-.9.6-1.4.1-.2.1-.5.2-.7,0-.6.3-1.2.2-1.9.2-.7.1-1.3.1-2,0-.3,0-.6-.2-.9Z"/>
      <path class="st5" d="M144.1,149.4c0-.6-.1-1.1-.3-1.7-1.4.9-2.7,1.9-3.8,3.1-.2.1-.2.2-.2.3-1,1-1.8,2.2-2.5,3.4s-1.3,2.4-1.7,3.7c-.2.7-.5,1.3-.6,2.1-.1.2-.1.5-.2.7v.5c-.2.2-.2.5-.2.8-.1,1.6-.1,3.3,0,5q.2.6.9.3l.2-.2c1.4-.7,2.7-1.7,3.8-2.9,1.6-1.8,2.8-3.8,3.7-6.1.2-.6.4-1.1.5-1.7.2-.6.4-1.1.4-1.7.1-.3.2-.6.2-.9.1-.8.1-1.5.2-2.3,0-.8-.4-1.6-.4-2.4Z"/>
      <path class="st5" d="M154.6,140.8c-.1-.2-.1-.5-.2-.8-.1-.2-.1-.5-.2-.7-.1-.5-.3-.9-.5-1.4-.3-.9-.7-1.7-1.1-2.4q-.2-.3-.4-.1t-.1.2c-.8.9-1.4,1.9-1.9,3-.4.8-.8,1.6-1,2.4-.1.1-.1.3-.2.4-.2.6-.3,1.1-.5,1.6-.1.2,0,.5-.2.7,0,.4-.1.7-.2,1-.1.5,0,1-.1,1.4-.2.9-.2,1.9-.1,2.9.1.7.1,1.4.2,2.1v.2c-.1.3,0,.5.2.7h0c0,.3.1.6.1.9.1.4.3.8.3,1.3.1.2.1.4.2.6.1.2.2.4.3.7.2.5.4,1,.7,1.4q.2.3.5.1c.4-.4.8-.8,1.1-1.2,1-1.2,1.7-2.5,2.3-3.9.1-.1.1-.2.2-.4v-.3c.1-.1.1-.3.2-.5v-.3c.1-.1.1-.3.2-.5,0-.2,0-.4.1-.5.2-.6.3-1.3.4-1.9.1-1.7.1-3.4,0-5.1-.2-.3,0-.6-.2-.9,0-.3,0-.6-.1-.7Z"/>
      <path class="st5" d="M176.3,103.7v-1c0-.5.1-1.1-.1-1.6-.1-.3-.1-.7-.1-1-.1-.2,0-.5-.2-.7-.2-.7-.4-1.3-.7-2-.3-.6-.5-1.1-.8-1.7-.1,0-.1-.2-.2-.3-.4-.5-.7-1.1-1-1.5-.9-1.2-1.9-2.3-3.1-3.2-1.4-1.2-3-2.1-4.7-2.8q-.9-.3-.9.6c0,.8.2,1.6.3,2.5.2.2.1.5.2.7.1.2.1.4.2.6.2.9.6,1.8,1,2.7.8,1.7,1.8,3.3,3.1,4.7,1.2,1.4,2.6,2.6,4.2,3.5.7.4,1.4.8,2.2,1.1.5,0,.6,0,.6-.6Z"/>
      <path class="st5" d="M174.6,113.2c-.2-.7-.2-1.3-.4-2-.2-.2-.1-.4-.2-.6,0-.3-.3-.5-.2-.9-.1,0-.1-.3-.2-.5-.4-1.1-1-2.1-1.6-3.1-.5-.8-1-1.5-1.6-2.1-.1,0-.1-.2-.2-.3h0c-.1,0-.1-.2-.2-.2-.1,0-.2-.2-.3-.4-.9-.9-1.9-1.8-3-2.4-.3-.2-.4,0-.5.2,0,0-.1.2-.1.3,0,1.3-.2,2.5-.1,3.8.1,1.1.2,2.2.5,3.3.4,1.5.9,3,1.6,4.4.1,0,.1.2.2.3,0,.2.1.2.2.4,1.1,2,2.6,3.6,4.4,5.1.3.2.6.4.9.6.2.2.4,0,.5,0,.1-.4.3-.8.3-1.2.1-.3.3-.6.2-.9,0-.6.1-1.2.1-1.8,0-.6,0-1.3-.3-1.9Z"/>
      <path class="st5" d="M171.1,72.4c-.8-1.4-1.9-2.6-3.1-3.6-1.6-1.4-3.5-2.3-5.5-3-.6-.2-1.3-.3-2-.5-.8-.2-1.7-.2-2.5-.3-.2,0-.3,0-.2.3.1.3.3.6.4.9.9,2,2.2,3.8,3.8,5.3,1.4,1.3,3,2.4,4.7,3.2.7.3,1.4.6,2.2.8.1,0,.3,0,.4.2.9,0,1.8.3,2.7.3s.4,0,.4-.3v-.3c-.3-1.1-.7-2.1-1.3-3Z"/>
      <path class="st5" d="M174.7,85.4c-.2,0-.1-.3-.2-.4-.6-1.6-1.5-2.9-2.6-4.1s-2.4-2.3-3.8-3.2c-1.4-.8-2.9-1.5-4.5-1.9-.3,0-.4,0-.3.3.1.3.2.7.2,1,.3,1,.5,2,1,2.9.2.4.4.9.7,1.3.7,1.4,1.6,2.7,2.7,3.8.1,0,.1.2.2.3.6.5,1.2,1.1,1.9,1.6.9.7,1.8,1.2,2.8,1.7.7.3,1.4.6,2.1.8.4.2.5,0,.5-.4,0-1.3-.3-2.5-.7-3.7h0Z"/>
      <path class="st5" d="M119.2,21.4c0,.1.2.2.3.3.4.4.9.8,1.3,1.1.7.6,1.5,1.1,2.3,1.5s1.6.8,2.5,1c0,.1.3.1.5.2h.4c0,.1.3.1.5.2.4,0,.8.1,1.2.2.4.1.5,0,.4-.4,0-.1,0-.2-.1-.3-.3-.7-.6-1.5-.9-2.2-1-2-2.3-3.7-4-5.1-1.2-1-2.5-1.9-3.9-2.5-.8-.3-1.5-.6-2.3-.8,0-.1-.3-.1-.5-.2h-.7q-.4,0-.5.4c0,.7.3,1.4.6,2.1.7,1.8,1.6,3.2,2.9,4.5Z"/>
      <path class="st5" d="M165.7,61.7c-.4-1.1-1-2.1-1.7-3-1-1.2-2.1-2.1-3.4-2.9-.9-.5-1.8-.9-2.7-1.3-.7-.2-1.5-.4-2.2-.6-.5,0-1,0-1.5,0s-.4,0-.3.5c.1,0,.1.2.1.3.1,0,.1.2.2.3.6,1.4,1.4,2.5,2.4,3.6,1.1,1.2,2.5,2.2,4,3,.1,0,.2,0,.3.2.5,0,1,.4,1.5.5,1,.3,2,.5,3,.6q.4,0,.4-.5c-.1,0-.1-.3-.2-.5,0,.1.2,0,0,0Z"/>
      <path class="st5" d="M151.3,43.2c-1.6-1.9-3.6-3-6-3.6-.2-.2-.5,0-.7-.2-.7,0-1.4-.2-2.2-.2-1,0-2,.2-3,.2-.2.2-.4,0-.6.2-.6,0-1.1.3-1.6.5-.2.2-.7,0-.4.5h0c.2,0,.3.3.4.4.5.4,1,.8,1.5,1.1,1,.6,2,1.2,3.1,1.5.7.2,1.4.5,2.1.5.1.2.4,0,.6.2,1.5,0,3,0,4.5,0,.2-.2.4,0,.6-.2.6,0,1.1-.3,1.7-.5.2,0,.2-.2.1-.3,0,0-.1,0-.1-.1Z"/>
      <path class="st5" d="M154.4,48.2c-.8-.5-1.6-.8-2.4-1.1-.4,0-.8-.3-1.2-.3-.2,0-.4-.2-.6-.2-.5,0-1-.2-1.6-.2-.9,0-1.8,0-2.6,0-.3.2-.7,0-1,.2h-.2c-.5,0-.6.2-.3.6.3.3.5.7.8,1,1.3,1.4,2.8,2.5,4.5,3.3,1,.5,2,.8,3.1,1,.5,0,1,.3,1.5.3h2.9c.2,0,.4,0,.5,0s.3,0,.4,0c.1-.2,0-.3-.1-.5-.7-1.7-2.1-2.9-3.7-3.9Z"/>
      <path class="st5" d="M137,35.1c-.2,0-.4-.2-.6-.2h0c-.2,0-.5-.2-.7-.3-1.1-.3-2.1-.5-3.2-.5s-2.5,0-3.8.3c-1.1.3-2.1.6-3.1,1.2-.4.2-.4.3,0,.6,0,0,0,0,.2,0,.6.5,1.3.9,2.1,1.2,1.2.6,2.4,1,3.7,1.2.2.2.6,0,.8.2,1.3,0,2.6,0,3.8,0h.3c0,0,.1,0,.1,0,.2,0,.3,0,.4,0h.2c.2,0,.5,0,.7-.2.8,0,1.5-.5,2.3-.8.3,0,.3-.2,0-.5-.2-.2-.4-.5-.6-.6,0,0-.1-.2-.2-.2h0c-.7-.5-1.4-1-2.3-1.3Z"/>
      <path class="st5" d="M104.1,24.5c0,0,.2.1.2.1.4.2.6.5,1,.6,0,.2.2.2.3.2h0c0,0,.2.1.3.2,0,0,.3,0,.4.1,1.1.6,2.3.9,3.6,1,1.8.2,3.6.2,5.4-.4.4-.1.7-.3,1.1-.3,0-.1.3-.1.5-.2h0c0-.1.2-.1.2-.2h.3c.2-.1.2-.3,0-.4,0,0-.2-.1-.3-.2-.9-1-2.1-1.6-3.3-2.1-.3-.1-.7-.3-1.1-.3,0-.1-.3-.1-.5-.2h-1.1c-.2-.3-.5-.2-.8-.2h-1.9c-.3.2-.6,0-.9.2h-.6c0,.1-.3.1-.5.2h-.6c0,.1-.3.1-.5.2,0,0-.2,0-.3.1-.5.2-.9.4-1.4.6-.6.2-.6.3-.2.6.4.2.5.3.7.4Z"/>
      <path class="st5" d="M129.7,31.1c-.5-.5-1.1-.7-1.6-1.1-.9-.5-2-.7-3-1-.6,0-1.1-.1-1.7-.1-1.2,0-2.3.1-3.5.4-1,.2-1.9.6-2.8,1-.4.2-.4.4,0,.7.5.4,1.1.8,1.7,1.1s1.7.9,2.7,1.1c.2.2.5,0,.7.2h.3c.2.2.4,0,.6.2,1.7,0,3.4.2,5.1-.2.9-.2,1.7-.5,2.5-.9.3-.2.3-.3.1-.5-.4-.4-.7-.6-1-.9Z"/>
      <path class="st5" d="M145.7,28.1h0c0,.4.1.7.1,1,.1.6.3,1.1.3,1.7.1.1.1.4.2.5.2.5.4,1.1.6,1.6.3.8.7,1.5,1,2.2.1,0,.1.2.2.3,0,.2.2.2.2.4.9,1.5,2,2.9,3.2,4.2.3.4.6.7,1,1,.5.4.9.9,1.5,1.1.2,0,.1-.3.2-.5v-.4c.2-.2,0-.5.2-.7,0-.3,0-.7.1-1,.1-.5.1-1,.2-1.5.1-1.5-.1-3-.2-4.5-.1-.2-.1-.3-.1-.5s0-.3-.1-.4c0-.4-.3-.8-.2-1.2-.1-.1-.1-.3-.2-.5v-.4c-.1-.1-.1-.3-.2-.5h0c-.1-.2-.1-.4-.2-.6-.3-.9-.7-1.8-1.2-2.6-1.1-2.1-2.6-3.9-4.6-5.3-.5-.4-1-.6-1.5-1-.2-.1-.3-.1-.4.1-.1.3-.2.6-.2,1-.2.3,0,.6-.2.9-.1,1.5-.1,3,0,4.4,0,.7,0,1,.3,1.2Z"/>
    </g>
    <g>
      <path class="st5" d="M87.4,180.8c.8.1,1.6.2,2.4.4.3.1.5.1.8.1.7.2,1.5.3,2.2.3s.4,0,.5.1c1.4.1,2.9.2,4.3.4,1.4.1,2.9.2,4.3.2v-4.9h-1.2c-.5,0-1,.1-1.5,0-1.2-.2-2.3-.1-3.4-.3-.6-.1-1.3-.1-1.9-.2-.6-.1-1.2-.2-1.8-.2-.3-.1-.6-.3-.9-.2-.5,0-1-.1-1.4-.2-.4-.1-.9,0-1.3-.2-.8-.2-1.7-.4-2.5-.6-.2-.2-.6-.1-.8-.2h-.3c0-.1-.3-.1-.5-.2h-.5c0-.1-.3-.1-.5-.2h-.4c0-.1-.3-.1-.5-.2h-.4c0-.1-.2-.1-.4-.2-.7-.1-1.3-.4-2-.5-.6-.2-1.2-.4-1.8-.6-.5-.2-.9-.4-1.4-.5-.2-.2-.4-.1-.6-.2h0c0-.1-.2-.1-.3-.2-.4,0-.7-.2-1-.3-1.2-.5-2.4-1-3.6-1.5-.2-.1-.4-.2-.6-.3,0-.1-.2-.1-.4-.2-.6-.2-1.1-.5-1.7-.8-1.3-.7-2.6-1.4-3.9-2.1-2-1.1-3.9-2.4-5.7-3.6-1.5-1.1-3-2.2-4.5-3.4-1.6-1.3-3.2-2.7-4.7-4.2-.2-.2-.5-.4-.7-.6-.4-.4-.9-.8-1.2-1.2-.9-1-1.8-1.9-2.7-2.9,0-.2,0-.3-.2-.3-.5-.7-1.1-1.3-1.7-2-.2-.3-.3-.6-.7-.8-.7-.9-1.3-1.8-2-2.7-.5-.7-1-1.4-1.5-2.1,0-.1-.2-.2-.2-.3h0c0-.2,0-.3-.2-.4-.6-.9-1.2-1.8-1.8-2.8-.7-1.2-1.4-2.4-2-3.6-.6-1.2-1.3-2.4-1.8-3.6,0-.1,0-.3-.2-.3-.4-1-.9-2.1-1.3-3.1-.4-.9-.7-1.9-1-2.8-.4-1.1-.7-2.1-1.1-3.2-.2-.6-.4-1.2-.5-1.9-.1-.3-.3-.6-.3-1-.1-.2-.1-.5-.2-.7,0-.5-.2-1-.3-1.4,0-.2-.1-.5-.1-.8-.1-.2-.1-.5-.2-.8,0-.5-.3-1-.2-1.5-.1-.2,0-.6-.2-.8v-.2c-.1-.3,0-.6-.2-.9v-.6c-.1-.3,0-.7-.2-1-.1-1.2-.3-2.3-.4-3.5-.1-.7-.1-1.4-.1-2.2-.2-1.9-.2-3.8-.2-5.7s.1-4.1.3-6.2c.1-1.1.1-2.1.4-3.2.1-.3,0-.6.1-.9.2-.4.1-.8.2-1.2,0-.6.3-1.1.2-1.6.2-.2.1-.5.2-.7,0-.5.2-.9.2-1.4.2-.2,0-.6.2-.8,0-.6.2-1.1.4-1.7,0-.2.1-.4.1-.6.1-.2.1-.4.2-.6,0-.5.2-.9.4-1.3.3-1.2.7-2.5,1.1-3.7.1-.4.3-.8.4-1.2.1,0,.1-.3.2-.5.1-.6.4-1.1.6-1.7.5-1.2,1-2.4,1.5-3.6.9-2.1,1.9-4.1,3-6,0,0,0-.2.2-.3.5-1,1.1-1.9,1.6-2.8,0,0,.2-.2.2-.3,0,0,0-.2.2-.3.3-.6.7-1.2,1.1-1.7,0,0,0-.2.2-.3.8-1.2,1.7-2.4,2.6-3.5,1.2-1.6,2.5-3.1,3.8-4.6.7-.8,1.5-1.6,2.3-2.4.8-.8,1.6-1.7,2.5-2.5.8-.7,1.5-1.4,2.3-2.1,1-.9,2.1-1.7,3.2-2.6h0c0,0,.2,0,.2-.2h0c0,0,.2,0,.2-.2.2-.2.4-.3.5-.5,0,0,.2,0,.3-.2h0c0,0,.2,0,.2-.2.6-.4,1.2-.8,1.8-1.2,0,0,.2,0,.3-.2,1.6-1.1,3.3-2.2,5-3.2h.2c0,0,.2,0,.3-.2h0c.4-.2.8-.5,1.1-.7.2,0,.3-.2.4-.3.4,0,.8-.3,1.2-.5.7-.3,1.3-.7,1.9-1h.3c0-.1.2-.1.2-.2.3-.1.7-.3,1-.5.2,0,.3-.1.5-.2.3,0,.5-.2.7-.3.8-.3,1.6-.7,2.4-1,0,0,.2-.1.3-.2.2,0,2.4-.8,4-1.4h0c.8-.3,1.4-.5,1.6-.5q0-.1,0-.2c0,0-2.4.7-3.9,1.2h-.2c-.6.2-1,.3-1,.4h-.3c0,.1-.2.1-.4.2h-.2c-.9.4-1.9.8-2.8,1.1-.2.1-.4.2-.6.3h0c-.2,0-.3.1-.4.2-.2,0-.4.2-.7.2,0,.1-.2.2-.3.2-1.1.4-2,1-3.1,1.4,0,0-.2.2-.3.3-.2,0-.3,0-.4.2-.2,0-.3,0-.4.2-.2,0-.4.3-.6.2,0,0-.2,0-.3.2h0c0,0-.3,0-.4.2-.7.4-1.4.9-2.2,1.3-1.6.9-3.1,1.9-4.6,2.9-1.2.8-2.5,1.7-3.6,2.7-2.2,1.7-4.4,3.5-6.4,5.5l-3.1,3.1c-1.5,1.7-3,3.4-4.4,5.2-1.1,1.4-2.2,2.9-3.2,4.4-.3.4-.6.8-.8,1.2,0,0,0,.2-.2.3,0,0-.2.2-.2.3,0,0,0,.2-.2.3-1.6,2.6-3.1,5.2-4.4,8-.1,0-.1.2-.2.4-.1.4-.3.7-.5,1.1-.1,0-.1.3-.2.4-.6,1.3-1.1,2.6-1.6,3.9-.1.4-.3.8-.5,1.2-.2.2-.1.4-.2.6h0c-.1.2-.1.4-.2.5,0,.4-.2.6-.2,1s0,.2-.1.2c-.1,0,0,.2-.1.2v.2c-.1,0-.1.3-.2.4-.2.7-.3,1.3-.5,1.9-.2.7-.4,1.4-.6,2.1-.1.4-.2.7-.3,1.1-.2.2-.1.5-.2.7,0,.5-.2,1.1-.3,1.6-.1.5-.2,1-.3,1.4-.1.7-.4,1.3-.3,2.1-.2.2-.2.4-.2.7-.1,1-.2,2-.4,2.9v.2c0,1.3-.3,2.7-.4,4-.2,3.1-.2,6.3-.1,9.4,0,1.2.1,2.4.3,3.6.2,1,.2,2,.3,3,.1.8.3,1.7.3,2.6.2.3,0,.6.2.9h0c0,.3-.1.6.2.9,0,.4,0,.7.2,1.1.1.2.1.5.1.8.1.2,0,.5.2.7,0,.4.3.8.2,1.2.1.2,0,.5.2.7h0l.6,2.4c.1.2,0,.4.1.6.2.2.2.5.2.8.1.2.1.4.2.6.1.3.3.6.2,1,.1,0,.1.3.2.5.1.3.3.6.2.9.1.1.1.3.2.4.1.3.2.7.4,1,.1.2.1.3.1.5.1.1.1.3.2.5.5,1.2.9,2.4,1.4,3.5.7,1.6,1.4,3.1,2.2,4.6,0,.2.2.5.3.7,0,.1,0,.3.2.4.5.6.7,1.3,1.1,1.9.6,1,1.2,2.1,1.9,3,0,.2,0,.3.2.4h0c0,.2,0,.3.2.4,1.1,1.6,2.2,3.3,3.4,4.9,1.3,1.7,2.7,3.4,4.1,5,1.4,1.5,2.8,3,4.3,4.4,1.1,1.1,2.3,2.1,3.5,3.2.9.8,1.8,1.5,2.7,2.2,1.2.9,2.4,1.8,3.6,2.6.4.3.8.5,1.1.8,0,.1.2.1.3.2,2,1.3,4,2.6,6.2,3.7.2.1.4.3.7.3,1.2.7,2.4,1.2,3.6,1.8.5.2,1,.4,1.5.7.3.2.6.3.9.4.8.2,1.5.6,2.3.9.5.2,1,.4,1.6.6,0,.1.2.1.4.2.3-.1.6.2.9.2,1.3.4,2.6.8,4,1.2.8.2,1.6.4,2.4.6.2.2.4.1.6.2h.4c0,.1.3.1.5.2h.6c.2.2.5,0,.7.2h.5c.3-.3.5-.3.6-.2ZM72,30h0ZM67.2,32.4s0,0,0,0c0,0,0,0,0,0h0Z"/>
      <path class="st5" d="M7.9,112.8c.2,0,.3,0,.4,0,.4.2.8.3,1.2.4.1,0,.3,0,.5.2.4.2.9.3,1.3.6,1.5.7,3,1.6,4.3,2.7.1,0,.2,0,.2.2.2,0,.4.3.5.4,1.4,1.1,2.6,2.4,3.8,3.8.7.8,1.3,1.7,1.9,2.6.1,0,.1.2.2.3.7,1.3,1.5,2.7,2,4.1.2.6.5,1.1.6,1.7.1.1.1.3.2.5,0,.4.2.9.3,1.3.2.7.4,1.4.4,2.1s0,.3.1.5c.1.4,0,.6-.4.5-.5-.1-.9-.3-1.4-.4-1.2-.4-2.4-.9-3.6-1.5-1.4-.7-2.7-1.6-3.9-2.5-1.8-1.4-3.4-3-4.8-4.9-.3-.5-.6-1-1-1.4-.1,0-.1-.3-.2-.3h0c-.1-.2-.1-.3-.2-.4-.3-.7-.7-1.3-1-2-.1,0-.1-.2-.2-.4h0c-.1-.2-.1-.4-.2-.6h0c-.2-.2-.1-.4-.2-.5v-.2c-.1,0,0-.2-.1-.2h0c-.1,0-.1-.2-.1-.2,0-.2,0-.3-.1-.4-.3-1.1-.6-2.2-.7-3.3,0-.2,0-.4,0-.6,0-.5,0-1.1,0-1.6,0-.5.2-.6.4-.6Z"/>
      <path class="st5" d="M21.7,87.1c.1.4.3.7.3,1.2.1.2,0,.4.2.6v.4c.1.2.1.5.2.7v.6c.2.2.2.5.2.8,0,.6.1,1.2.2,1.8.1.8.1,1.6,0,2.3-.1.2,0,.4,0,.6s-.1.4-.4.2c-.2,0-.3-.2-.5-.3-1.4-.7-2.7-1.5-3.9-2.4-2-1.6-3.8-3.4-5.3-5.6-1.3-1.9-2.4-3.9-3.1-6-.2-.6-.5-1.2-.6-1.8-.2-.2-.1-.5-.2-.7v-.2c-.2-.2,0-.6-.2-.8,0-.4,0-.8-.1-1.2-.2-1.2-.2-2.5-.1-3.7.1-.5.1-1,.1-1.5.1-.2,0-.5.2-.7h.2c.6.3,1.2.6,1.8,1,1.7,1.1,3.2,2.3,4.6,3.8,1.1,1.2,2.1,2.5,3,3.8,1.6,2.3,2.7,4.6,3.4,7.1Z"/>
      <path class="st5" d="M12.3,134.9h.3c1-.1,2,.2,2.9.3.3,0,.5.1.7.2h0c.2,0,.5.1.7.1.5.1.9.3,1.4.4.1.1.2.1.4.2.8.1,1.5.5,2.2.8,1.5.7,3,1.5,4.4,2.4,2.1,1.5,4,3.2,5.7,5.2,1.5,1.8,2.7,3.7,3.6,5.8.2.3.3.8.5,1.1,0,.2,0,.3-.2.3-1.1,0-2.2-.2-3.4-.3-.8-.1-1.6-.3-2.4-.4-.7-.2-1.5-.4-2.2-.6-.2,0-.3,0-.4-.2h-.3c-.1-.1-.2-.1-.4-.2-.1,0-.2,0-.3-.1-1.2-.6-2.4-1.1-3.5-1.8-1.8-1-3.3-2.2-4.8-3.6-.3-.3-.6-.6-1-.9-.1-.1-.1-.2-.2-.3s-.1-.2-.2-.3c-.1-.2-.3-.4-.4-.6-.5-.5-.8-1.1-1.2-1.6-.1-.1-.1-.2-.2-.4h0c-.1-.2-.1-.3-.2-.4h0c-.8-1.5-1.4-3-1.8-4.6-.1-.4-.1-.5.3-.5Z"/>
      <path class="st5" d="M39.4,172.7c1.2-.6,2.4-1,3.7-1.3.4-.1.8-.2,1.2-.3.8-.2,1.6-.3,2.4-.4,1.3-.1,2.5-.1,3.8-.1s1.6.1,2.4.2c.7.1,1.4.3,2,.4.3,0,.5,0,.7.2h0c.5-.1.8.3,1.3.2,0,.1.2.1.4.2.2,0,.3.1.5.1.4.1.8.3,1.2.4,0,.1.3.1.3.2.7.3,1.5.7,2.2,1,.2.2.6.2.8.4h0c0,.1.2.1.3.2.5.3,1,.6,1.5.9.8.6,1.7,1.2,2.5,1.9.5.4.5.5,0,.8-1.1.5-2.2.9-3.4,1.3-1.4.4-2.8.7-4.2.8,0,0-.2,0-.3.1-.3.2-.7.2-1,.2h-4.2c-.3-.2-.6,0-.9-.2-.7,0-1.3-.3-2-.2-.3-.1-.6,0-.8-.2-.4,0-.7-.2-1-.3-.6-.2-1.2-.4-1.8-.6-.5-.2-1-.5-1.5-.6,0-.1-.2-.1-.3-.2-.2-.1-.3-.2-.5-.3-.5-.2-.9-.5-1.4-.8-.3,0-.4-.2-.5-.3h0c-1-.7-2-1.5-2.9-2.4-.2-.2-.5-.5-.7-.8q-.1-.3.2-.5Z"/>
      <path class="st5" d="M23.3,154.1c.2-.1.5-.1.7-.1,2.2-.2,4.4-.1,6.5.3.6.1,1.1.3,1.7.4.2.1.4.1.6.2.2,0,.4.1.6.1.4.1.8.4,1.2.4,0,.1.3.1.4.2.9.4,1.8.7,2.6,1.2,1.4.7,2.8,1.6,4.1,2.5.2.1.3.3.6.4,1,.9,2.1,1.7,3,2.8.4.3.6.8,1,1,.3.4.6.9.9,1.3.5.6.8,1.2,1.2,1.8,0,.1.2.2,0,.4,0,.1-.3.1-.5.1h0c-.2.1-.3.1-.4.1-1,0-2,.2-3,.2s-2-.2-3-.2h-.4c0-.1,0-.1,0-.1-.2,0-.3,0-.5-.1h-.6c-.2-.2-.5,0-.7-.2h-.4c0-.1-.3-.1-.5-.2h-.5c0-.1-.3-.1-.5-.2-1.2-.4-2.5-.8-3.6-1.4-2.1-.9-4-2.2-5.7-3.7-1.4-1.2-2.6-2.6-3.6-4.2-.4-.7-.8-1.5-1.2-2.2-.2-.7-.2-.8.2-.8Z"/>
      <path class="st5" d="M6,94.8v-2.5c0-.4,0-.8,0-1.2,0-.2,0-.4,0-.6.2-.8.3-.8,1-.4,1,.6,1.9,1.2,2.8,1.8.1,0,.2,0,.3.2.2,0,.3.3.5.4.4.4.9.7,1.3,1.2.1,0,.2,0,.3.2.7.7,1.3,1.5,2,2.2.1,0,.1.2.2.3.8.9,1.4,1.9,2,2.9.4.7.7,1.4,1.1,2.1.5,1.1,1,2.2,1.3,3.3.2,0,.1.3.2.4.1.8.4,1.5.5,2.3.2.9.4,1.7.4,2.6v.4c.3,1.2.2,2.4.1,3.6,0,.4-.2.5-.6.3-.7-.4-1.5-.7-2.2-1.2-.4,0-.6-.3-.9-.6-.3-.2-.6-.4-.9-.7-.1,0-.2,0-.3-.2-.6-.5-1.3-1.1-1.9-1.6-1.3-1.3-2.5-2.6-3.5-4.1-.8-1.2-1.6-2.5-2.2-3.8-.4-1-.8-2.1-1.2-3.1-.3-1-.6-2.1-.7-3.1.2-.3.3-.7.2-1.1h0Z"/>
      <path class="st5" d="M61.4,184.6c.7-.5,1.4-.9,2.1-1.3.3-.2.6-.4,1-.4,0-.2.2-.2.3-.2h0c0,0,.2-.1.3-.2.8-.3,1.5-.6,2.3-.8.5-.1,1-.4,1.6-.4.2-.1.3-.1.5-.2.8-.1,1.7-.2,2.5-.5,1.1.1,2.1-.2,3.2-.2s1.4.2,2.2.2h1.4c.3.2.7-.1,1,.2,1.1.2,2.2.5,3.3.8.5.1,1,.3,1.5.5.8.3,1.7.7,2.5,1.1,0,.1.2.1.3.2.7.4,1.4.6,2,1.2-.4.5-.9.8-1.4,1.1-1.5.9-3,1.7-4.6,2.3-.5.2-1.1.4-1.7.5,0,.1-.2.1-.4.2h-.4c0,.1-.3.1-.5.2-.2,0-.5,0-.8.1-.9.2-1.7.4-2.6.4-.2.1-.4.1-.7.2h-4.2c0,0,0-.1-.2-.1h-.3c-.3-.1-.6,0-.8-.1h-.3c-.3-.2-.8-.1-1.1-.2h0c-.2-.2-.4,0-.6-.2-.5,0-.8-.3-1.3-.3,0-.1-.3-.1-.5-.2-2.3-.8-4.4-1.9-6.1-3.5.2-.2.3-.3.4-.4Z"/>
      <path class="st5" d="M34,53.4c0,.6,0,1.2-.2,1.7,0,.4-.2.8-.3,1.3,0,.7-.3,1.4-.5,2-.4,1.3-.9,2.5-1.6,3.7-.4.8-.8,1.5-1.3,2.2,0,0-.1.2-.2.2s-.2,0-.2-.2c-.1-.2-.2-.3-.3-.4-.2-.4-.5-.7-.6-1.1h0c-.1,0-.2-.2-.2-.3s-.1-.2-.1-.3c-.8-1.6-1.3-3.2-1.8-5-.3-1.3-.4-2.5-.6-3.8v-.5c0-1.4,0-2.9.2-4.3.3-1.8.7-3.5,1.4-5.2.7-1.7,1.7-3.3,3-4.6.1,0,.3,0,.4,0,.2.4.5.7.6,1.1.5,1,1,1.9,1.3,3,0,0,0,.2.2.3v.2c0,0,0,.3.2.5v.2c0,.2,0,.5.2.7,0,.2,0,.4,0,.6.2.3.2.5.2.8,0,.3.2.6.2.9,0,.9.3,1.7.2,2.6-.2,1.3,0,2.5-.3,3.7Z"/>
      <path class="st5" d="M25.2,77.8v.4c-.2.2-.1.5-.2.7-.1.5-.2.9-.5,1.4-.1.3-.2.3-.5,0-1.4-1.3-2.7-2.7-3.8-4.2-.6-1-1.2-2-1.8-3-.1,0-.1-.3-.2-.4-.3-.6-.5-1.3-.8-1.9-.1,0-.1-.3-.2-.5v-.2c-.1-.2-.1-.5-.2-.7h0c0-.2.1-.5,0-.6,0-.5-.3-1-.2-1.5-.1-.2,0-.5-.2-.7v-.8c-.2-.3,0-.8-.2-1.1v-1.8c0-.5-.1-1,0-1.4.2-.7.2-1.4.3-2,.1-.5.2-.9.3-1.4.1,0,.1-.3.2-.5.2-.7.5-1.4.8-2.1.2-.3.3-.4.6,0,.5.4.9.9,1.4,1.4.8.9,1.5,2,2.3,3,.1,0,.1.2.2.4,0,.2.1.3.2.4.1,0,.1.3.2.4.6,1.2,1.2,2.4,1.6,3.7.2.6.4,1.2.5,1.8.1.2,0,.5.2.7v.4c.2.2,0,.5.2.7v.7c.2.3.2.7.2,1v2.1c0,1.6,0,3.2-.3,4.8,0,.3,0,.6-.1.8Z"/>
      <path class="st5" d="M45.3,41.7c-.2.6-.4,1.2-.5,1.8,0,0,0,.3-.2.4-.3.8-.7,1.6-1.1,2.3-.2.2-.2.5-.4.7s-.2.3-.2.4c-.8,1.2-1.7,2.4-2.7,3.4s-.8.7-1.2,1.1c-.2.2-.3.2-.5-.2,0-.2,0-.4-.2-.6,0-.4-.2-.7-.2-1,0-.8-.3-1.5-.4-2.3-.3-2.3,0-4.5.4-6.8.2-.9.5-1.8.8-2.7.6-1.6,1.3-3,2.3-4.3.9-1.3,2-2.4,3.3-3.3.3-.2.6-.4,1-.5,0,.1,0,.1,0,.2.5,1.7.8,3.5.8,5.3s0,2.6-.3,3.8c-.4.8-.5,1.6-.8,2.3Z"/>
      <path class="st5" d="M74.1,16.7c0,1-.4,2-.7,3.1-.2.7-.5,1.4-.8,2.2,0,.1-.2.3-.2.5s-.2.3-.2.4c-.7,1.5-1.6,2.8-2.6,4.1-.4.5-.8,1-1.2,1.4-.2.2-.4.3-.5.5,0,0,0,0,0,.1-.9.8-1.8,1.6-2.8,2.2,0,.1-.3.1-.3.2-1,.7-2,1.2-3.1,1.7-.3,0-.6.4-.8.2s0-.6,0-1h0c.2-.9.2-1.9.4-2.9,0-.1,0-.3,0-.4s0-.2,0-.4v-.2c0-.1,0-.3.2-.5.2-.7.4-1.4.7-2.1.9-2.1,2-4,3.5-5.7,1.3-1.5,2.8-2.8,4.5-3.8,0-.1.2-.1.3-.2h0c.2-.2.6-.2.8-.4.8-.4,1.7-.7,2.6-.9.2-.1.3,0,.3.2v.7c-.1.4-.2.7-.2,1Z"/>
      <path class="st5" d="M41.4,129.1c.6-1.4,1.5-2.7,2.4-3.9.2-.3.4-.3.6,0,.5.9.9,1.8,1.2,2.8s.6,2,.8,3,.3,2,.3,3,0,2.3-.2,3.4c0,.7-.2,1.4-.3,2.1-.2.9-.5,1.8-.8,2.7-.6,1.5-1.3,2.9-2.2,4.1-.5.7-.4.9-1,0,0-.1,0-.2-.2-.3,0-.1-.2-.2-.2-.3,0-.1,0-.2-.2-.4,0-.2-.2-.3-.2-.5-.4-.9-.8-1.8-1-2.8-.3-1.2-.6-2.4-.6-3.6s0-2.3.2-3.5c.2-1.1.4-2.1.7-3.1-.1-1.1.3-2,.7-2.8Z"/>
      <path class="st5" d="M84.9,168.1c0,.1,0,.3.2.5.2.4.3.8.5,1.2s0,.4.2.6c0,.4.2.7.2,1.1,0,.1,0,.2,0,.4h0s0,0,0,.1v.4c0,.3,0,.6,0,.9.2.5,0,1.1,0,1.6s0,.2-.2.2c0-.1-.3-.1-.5-.2h-.4c0-.1-.3-.1-.5-.2-.6-.2-1.3-.4-1.9-.8-2.4-1.3-4.3-3-5.9-5.2-1.2-1.7-2.2-3.6-2.8-5.5,0-.2,0-.4-.2-.6,0-.3-.2-.6-.2-.9-.2-.7-.3-1.4-.4-2.1,0-.7,0-1.3,0-2s0-.3.3-.2c.2.1.4.1.6.2,2,.8,3.7,2,5.3,3.3.8.7,1.6,1.5,2.3,2.3,0,0,0,.1,0,.2h0c0,0,.2.1.2.2h0c1.1,1.3,2,2.9,2.8,4.5Z"/>
      <path class="st5" d="M33.7,125.7c0-.3,0-.7,0-1,.2-.9.3-1.8.6-2.7.3-1.1.7-2.1,1.2-3.1.7-1.3,1.5-2.6,2.5-3.8,0,0,0-.2.2-.3,1-1.1,2-2.1,3.2-3,0,0,.2-.3.4,0,0,.2,0,.4,0,.6.2.7.3,1.3.3,2,0,1.5,0,3,0,4.5,0,.3,0,.6-.2.9h0c0,.6-.3,1.2-.3,1.8,0,0,0,.3-.2.5v.2c0,0,0,.3-.2.5v.3c0,0,0,.3-.2.5-.7,2-1.7,3.9-3,5.6-.2.2-.2.4-.4.6-1.2,1.4-2.6,2.7-3.2,2.9-.3-.4-.4-.9-.5-1.4-.2-.2,0-.5-.2-.7,0-.6-.3-1.2-.2-1.9-.2-.7,0-1.3,0-2,0-.3,0-.6.1-.9Z"/>
      <path class="st5" d="M60,149.4c0-.6,0-1.1.3-1.7,1.4.9,2.7,1.9,3.8,3.1.2.1.2.2.2.3,1,1,1.8,2.2,2.5,3.4s1.3,2.4,1.7,3.7c.2.7.5,1.3.6,2.1,0,.2,0,.5.2.7v.5c.2.2.2.5.2.8,0,1.6,0,3.3,0,5q-.2.6-.9.3t-.2-.2c-1.4-.7-2.7-1.7-3.8-2.9-1.6-1.8-2.8-3.8-3.7-6.1-.2-.6-.4-1.1-.5-1.7-.2-.6-.4-1.1-.4-1.7,0-.3-.2-.6-.2-.9,0-.8,0-1.5-.2-2.3.1-.8.5-1.6.4-2.4Z"/>
      <path class="st5" d="M49.5,140.8c0-.2.2-.5.2-.8,0-.2,0-.5.2-.7,0-.5.3-.9.5-1.4.3-.9.7-1.7,1.1-2.4q.2-.3.4-.1c0,.1,0,.1,0,.2.8.9,1.4,1.9,1.9,3,.4.8.8,1.6,1,2.4.2.1,0,.3.2.4.2.6.3,1.1.5,1.6.2.2,0,.5.2.7,0,.4,0,.7.2,1,.2.5,0,1,0,1.4.2.9.2,1.9.2,2.9,0,.7,0,1.4-.2,2.1v.2c0,.3,0,.5-.2.7h0c0,.3,0,.6-.2.9,0,.4-.3.8-.3,1.3,0,.2,0,.4-.2.6,0,.2-.2.4-.3.7-.2.5-.4,1-.7,1.4q-.2.3-.5.1c-.4-.4-.8-.8-1.1-1.2-1-1.2-1.7-2.5-2.3-3.9,0-.1,0-.2-.2-.4v-.3c0-.1,0-.3-.2-.5v-.3c0-.1,0-.3-.2-.5,0-.2,0-.4,0-.5-.2-.6-.3-1.3-.4-1.9,0-1.7,0-3.4,0-5.1.2-.3,0-.6.2-.9,0-.3,0-.6,0-.7Z"/>
      <path class="st5" d="M27.8,103.7v-1c0-.5,0-1.1.1-1.6.1-.3.1-.7.1-1,.1-.2,0-.5.2-.7.2-.7.4-1.3.7-2,.3-.6.5-1.1.8-1.7.1,0,.1-.2.2-.3.4-.5.7-1.1,1-1.5.9-1.2,1.9-2.3,3.1-3.2,1.4-1.2,3-2.1,4.7-2.8.8-.3.9-.3.9.6s-.2,1.6-.3,2.5c-.2.2,0,.5-.2.7,0,.2-.2.4-.2.6-.2.9-.6,1.8-1,2.7-.8,1.7-1.8,3.3-3.1,4.7-1.2,1.4-2.6,2.6-4.2,3.5-.7.4-1.4.8-2.2,1.1-.5,0-.6,0-.6-.6Z"/>
      <path class="st5" d="M29.5,113.2c.2-.7.2-1.3.4-2,.2-.2.1-.4.2-.6,0-.3.3-.5.2-.9.1,0,.1-.3.2-.5.4-1.1,1-2.1,1.6-3.1.5-.8,1-1.5,1.6-2.1s0-.2.2-.3h0c0,0,0-.2.2-.2,0,0,.2-.2.3-.4.9-.9,1.9-1.8,3-2.4.3-.2.4,0,.5.2,0,0,0,.2,0,.3,0,1.3.2,2.5,0,3.8,0,1.1-.2,2.2-.5,3.3-.4,1.5-.9,3-1.7,4.4,0,0,0,.2-.2.3,0,.2,0,.2-.2.4-1.1,2-2.6,3.6-4.4,5.1-.3.2-.6.4-.9.6-.2.2-.5,0-.5,0-.1-.4-.3-.8-.3-1.2-.1-.3-.3-.6-.2-.9,0-.6-.1-1.2-.1-1.8.3-.6.2-1.3.4-1.9Z"/>
      <path class="st5" d="M33,72.4c.8-1.4,1.9-2.6,3.2-3.6,1.7-1.4,3.5-2.3,5.5-3,.6-.2,1.3-.3,2-.5.8-.2,1.7-.2,2.5-.3.2,0,.3,0,.2.3,0,.3-.3.6-.4.9-.9,2-2.2,3.8-3.8,5.3-1.4,1.3-3,2.4-4.7,3.2-.7.3-1.4.6-2.2.8,0,0-.3,0-.5.2-.9,0-1.8.3-2.7.3s-.4,0-.4-.3v-.3c.3-1.1.7-2.1,1.3-3Z"/>
      <path class="st5" d="M29.4,85.4c.2,0,.1-.3.2-.4.6-1.6,1.5-2.9,2.6-4.1,1.1-1.2,2.4-2.3,3.8-3.2,1.4-.8,2.9-1.5,4.5-1.9.3,0,.4,0,.3.3,0,.3-.2.7-.2,1-.3,1-.5,2-1,2.9-.2.4-.5.9-.7,1.3-.7,1.4-1.6,2.7-2.7,3.8,0,0,0,.2-.2.3-.6.5-1.2,1.1-1.8,1.6-.9.7-1.8,1.2-2.8,1.7-.7.3-1.4.6-2.1.8-.4.2-.5,0-.5-.4,0-1.3.2-2.5.6-3.7h0Z"/>
      <path class="st5" d="M84.9,21.4c0,.1-.2.2-.3.3-.4.4-.9.8-1.3,1.1-.7.6-1.5,1.1-2.3,1.5s-1.6.8-2.5,1c0,.1-.3.1-.5.2h-.4c0,.1-.3.1-.5.2-.4,0-.8.1-1.2.2-.3.1-.5,0-.4-.4,0-.1,0-.2,0-.3.3-.7.6-1.5.9-2.2,1-2,2.3-3.7,4-5.1,1.2-1,2.5-1.9,3.9-2.5.8-.3,1.5-.6,2.3-.8,0-.1.3-.1.5-.2h.7q.4,0,.5.4c0,.7-.3,1.4-.6,2.1-.7,1.8-1.6,3.2-2.9,4.5Z"/>
      <path class="st5" d="M38.4,61.7c.5-1.1,1-2.1,1.7-3,1-1.2,2.1-2.1,3.4-2.9.9-.5,1.8-.9,2.7-1.3.7-.2,1.5-.4,2.2-.6.5,0,1,0,1.5,0s.5,0,.3.5c0,0,0,.2,0,.3,0,0,0,.2-.2.3-.6,1.4-1.4,2.5-2.4,3.6-1.1,1.2-2.5,2.2-4,3,0,0-.2,0-.3.2-.5,0-1,.4-1.5.5-1,.3-2,.5-3,.6q-.4,0-.4-.5c0,0,0-.3.2-.5-.1.1-.1,0-.1,0Z"/>
      <path class="st5" d="M52.9,43.2c1.6-1.9,3.6-3,6-3.6.2-.2.5,0,.7-.2.7,0,1.4-.2,2.2-.2,1,0,2,.2,3,.2.2.2.4,0,.6.2.6,0,1.1.3,1.7.5.2.2.7,0,.4.5h0c-.2,0-.3.3-.4.4-.5.4-1,.8-1.5,1.1-1,.6-2,1.2-3.1,1.5-.7.2-1.4.5-2.1.5-.2.2-.4,0-.6.2-1.5,0-3,0-4.5,0-.2-.2-.4,0-.6-.2-.6,0-1.1-.3-1.7-.5-.2,0-.2-.2,0-.3-.2,0-.1,0,0-.1Z"/>
      <path class="st5" d="M49.7,48.2c.8-.5,1.6-.8,2.4-1.1.4,0,.8-.3,1.2-.3.2,0,.3-.2.6-.2.5,0,1-.2,1.6-.2.9,0,1.8,0,2.6,0,.3.2.7,0,1,.2h.2c.5,0,.5.2.3.6-.3.3-.5.7-.8,1-1.3,1.4-2.8,2.5-4.5,3.3-1,.5-2,.8-3.1,1-.5,0-1,.3-1.5.3h-2.9c-.2,0-.3,0-.5,0s-.3,0-.4,0c0-.2,0-.3,0-.5.8-1.7,2.1-2.9,3.7-3.9Z"/>
      <path class="st5" d="M67.1,35.1c.2,0,.3-.2.6-.2h0c.2,0,.5-.2.7-.3,1.1-.3,2.1-.5,3.2-.5s2.5,0,3.8.3c1.1.3,2.1.6,3.1,1.2.4.2.4.3,0,.6,0,0,0,0-.2,0-.6.5-1.3.9-2.1,1.2-1.2.6-2.4,1-3.7,1.2-.2.2-.6,0-.8.2-1.3,0-2.6,0-3.8,0h-.3c0,0,0,0,0,0-.2,0-.3,0-.4,0h-.2c-.2,0-.5,0-.7-.2-.8,0-1.5-.5-2.3-.8-.3,0-.3-.2,0-.5s.4-.5.6-.6c0,0,0-.2.2-.2h0c.7-.5,1.4-1,2.3-1.3Z"/>
      <path class="st5" d="M100,24.5c0,0-.2.1-.2.1-.4.2-.6.5-1,.6,0,.2-.2.2-.3.2h0c0,0-.2.1-.3.2,0,0-.3,0-.4.1-1.1.6-2.3.9-3.6,1-1.8.2-3.6.2-5.4-.4-.4-.1-.7-.3-1.1-.3,0-.1-.3-.1-.5-.2h0c0-.1-.2-.1-.2-.2h-.3c-.2-.1-.2-.3,0-.4,0,0,.2-.1.3-.2.9-1,2.1-1.6,3.3-2.1.3-.1.7-.3,1.1-.3,0-.1.3-.1.5-.2h1.1c.2-.3.5-.2.8-.2h1.9c.3.2.6,0,.9.2h.6c0,.1.3.1.5.2h.6c0,.1.3.1.5.2,0,0,.2,0,.3.1.5.2.9.4,1.4.6.6.2.6.3.2.6-.3.2-.5.3-.7.4Z"/>
      <path class="st5" d="M74.4,31.1c.5-.5,1.1-.7,1.6-1.1.9-.5,2-.7,3-1,.6,0,1.1-.1,1.7-.1,1.2,0,2.3.1,3.5.4,1,.2,1.9.6,2.8,1,.4.2.4.4,0,.7-.5.4-1.1.8-1.7,1.1s-1.7.9-2.7,1.1c-.2.2-.5,0-.7.2h-.3c-.2.2-.4,0-.6.2-1.7,0-3.4.2-5.1-.2-.8-.2-1.7-.5-2.5-.9-.3-.2-.3-.3,0-.5.5-.4.8-.6,1-.9Z"/>
      <path class="st5" d="M58.4,28.1h0c0,.4,0,.7,0,1,0,.6-.3,1.1-.3,1.7,0,.1,0,.4-.2.5-.2.5-.4,1.1-.6,1.6-.3.8-.7,1.5-1,2.2,0,0,0,.2-.2.3,0,.2-.2.2-.2.4-.9,1.5-2,2.9-3.2,4.2-.3.4-.6.7-1,1-.5.4-.9.9-1.5,1.1-.2,0,0-.3-.2-.5v-.4c-.2-.2,0-.5-.2-.7,0-.3,0-.7,0-1,0-.5,0-1-.2-1.5,0-1.5,0-3,.2-4.5.2-.2,0-.3,0-.5s0-.3,0-.4c0-.4.3-.8.2-1.2,0-.1,0-.3.2-.5v-.4c0-.1,0-.3.2-.5h0c0-.2,0-.4.2-.6.3-.9.7-1.8,1.2-2.6,1.1-2.1,2.6-3.9,4.5-5.3.5-.4,1-.6,1.5-1,.2-.1.3-.1.4.1,0,.3.2.6.2,1,.2.3,0,.6.2.9,0,1.5,0,3,0,4.4,0,.7,0,1-.2,1.2Z"/>
    </g>
  </g>
  <g>
    <path class="st5" d="M60,73l.8,2.9h0l.8-2.9,4.1-14.2h.7l4,14.2.7,2.9h0l.8-2.9,3.6-14.2h.7l-4.7,18.3h-.7l-4.3-15.3-.6-1.8h0l-.6,1.8-4.4,15.3h-.7l-4.7-18.3h.7l3.7,14.2Z"/>
    <path class="st5" d="M80.7,77.1h-.7v-18.3h.7v18.3Z"/>
    <path class="st5" d="M98.6,77.1h-.7l-11.2-17h0v17h-.6v-18.3h.7l11.2,17h0v-17h.7v18.3h0Z"/>
    <path class="st5" d="M115.9,77.1h-.7l-11.2-17.1h0v17h-.7v-18.2h.7l11.2,17h0v-17h.7v18.3Z"/>
    <path class="st5" d="M130.2,67.9h-8.8v8.5h10v.7h-10.6v-18.3h10.6v.7h-10v7.8h8.8v.6Z"/>
    <path class="st5" d="M135.3,68.5v8.6h-.6v-18.3h5.6c1.8,0,3.3.4,4.2,1.2s1.5,2,1.5,3.7-.3,2-.9,2.8-1.5,1.4-2.6,1.6c1.3.2,2.2.7,2.7,1.4s.8,1.7.8,2.8v1.7c0,.6.1,1.1.2,1.5.1.4.4.8.6,1.1v.3h-.6c-.3-.3-.5-.8-.6-1.3s-.2-1.1-.2-1.7v-1.7c0-1.2-.4-2.2-1.2-2.9s-2-1-3.5-1l-5.4.2h0ZM135.3,67.8h4.8c1.8,0,3.1-.4,3.9-1.2s1.3-1.8,1.3-2.9-.4-2.4-1.3-3.1-2.1-1.1-3.8-1.1h-4.9v8.3h0Z"/>
  </g>
  <g>
    <path class="st5" d="M48.7,85.1h5.4c3.6,0,5.8,1.7,5.8,5.4s-1.6,5.4-5.3,5.4h-1.9v6.2h-4v-17ZM53.9,92.9c1.2,0,2.2-.9,2.1-2.4,0-1.7-.8-2.4-2.4-2.4h-1v4.9h1.3Z"/>
    <path class="st5" d="M62,92.1c0-1.2,0-2,0-2.7h3.5c0,.8,0,1.5,0,2.3h0c.8-1.4,1.3-2.5,3.5-2.5h.6v3.6c-.4,0-.8-.2-1.3,0-2.2,0-2.5,2-2.5,3.8v5.7h-3.9v-10.1Z"/>
    <path class="st5" d="M71.7,83.8h3.9v3.4h-3.9v-3.4ZM71.7,89.4h3.9v12.7h-3.9v-12.7Z"/>
    <path class="st5" d="M83.3,97.8l-2.1,4.3h-4l4-6.8-3.6-5.9h4.3l1.8,3.8,1.7-3.8h4l-3.6,5.9,3.9,6.8h-4.3l-2.1-4.3Z"/>
    <path class="st5" d="M109.1,88.8c-.6-.3-1.6-1-3.5-1-2.7,0-4.4,2.2-4.4,5.6s1.9,5.6,4.5,5.6,3.1-.7,3.5-.9l.2,3.6c-.7.2-2.1.6-4.3.6-4.7,0-7.9-3.5-7.9-8.9s4.2-8.8,7.7-8.8,3.8.6,4.5.8l-.3,3.4Z"/>
    <path class="st5" d="M112.3,89.9c1-.3,2.7-.8,4.1-.8,4.5,0,5.5,1.8,5.5,4.7v4.6c0,1.9,0,2.7,0,3.6h-3.5v-1.8h-.2c-.2.8-1.7,2-3.5,2s-3.9-1.5-3.9-3.8c0-4.2,4.9-4.3,6.3-4.3h1.2c0-2.4-1.8-2.4-2.4-2.4-1,0-2,.2-3.5,1.1l-.2-2.9ZM118.3,95.9c-1.5,0-4,0-3.9,2.2,0,1.7,1.3,1.7,1.7,1.7s2.3,0,2.3-3.2v-.7Z"/>
    <path class="st5" d="M124.5,91.9c0-1.2,0-2,0-2.7h3.5c0,.8,0,1.5,0,2.3h.1c.8-1.4,1.3-2.5,3.5-2.5h.6v3.6c-.4,0-.8-.2-1.3,0-2.2,0-2.5,2-2.5,3.8v5.7h-3.9v-10.1Z"/>
    <path class="st5" d="M133,89.3h2.2v-2.6l3.8-1.2v3.8h2.5v2.7h-2.5v5.8c0,1.2.6,1.6,1.3,1.6s.9,0,1.3-.3v2.7c-.4.2-1.4.3-2.7.3-2,0-3.7-1-3.7-3.8v-6.4h-2.2v-2.6Z"/>
    <path class="st5" d="M149.2,89c3.9,0,6,2.7,6,6.5s-2.1,6.6-6,6.6-6-2.7-6-6.6,2-6.5,6-6.5ZM149.2,99.5c1.3,0,2-1.5,2-4s-.6-3.9-2-3.9-2,1.4-2,3.9.6,4,2,4Z"/>
  </g>
  <g>
    <path class="st5" d="M69.9,119.9h-7.4v7.2h8.4v.6h-8.9v-15.5h8.9v.6h-8.4v6.5h7.4v.6Z"/>
    <path class="st5" d="M72.8,127.7v-15.5h4.1c1.7,0,3.1.6,4.3,1.9,1.2,1.3,1.8,2.9,1.8,4.9v1.9c0,2-.6,3.6-1.8,4.9s-2.6,1.9-4.3,1.9c0,0-4.1,0-4.1,0ZM73.4,112.8v14.3h3.5c1.5,0,2.8-.6,3.9-1.8s1.6-2.7,1.6-4.4v-1.9c0-1.8-.5-3.2-1.6-4.4-1.1-1.2-2.4-1.8-3.9-1.8,0,0-3.5,0-3.5,0Z"/>
    <path class="st5" d="M95.3,112.2v10.5c0,1.7-.5,3-1.4,3.9s-2.1,1.3-3.6,1.3-2.7-.4-3.6-1.3-1.4-2.2-1.4-3.9v-10.5h.5v10.5c0,1.4.4,2.6,1.2,3.4.8.8,1.9,1.2,3.2,1.2s2.4-.4,3.2-1.2,1.2-1.9,1.2-3.4v-10.5h.7Z"/>
  </g>
  <g>
    <path class="st5" d="M110.4,127.6h-8.8v-.6l4.8-5.7c.9-1.1,1.6-2,2-2.8.4-.8.6-1.5.6-2.2,0-1.1-.3-2-.9-2.6s-1.5-.9-2.6-.9-2.1.4-2.8,1.1-1,1.7-1,2.8h-.5c0-1.3.3-2.3,1.1-3.2.8-.9,1.8-1.3,3.1-1.3s2.2.4,2.9,1.1,1.1,1.7,1.1,3-.3,1.7-.8,2.6c-.5.9-1.3,1.9-2.2,3l-4.2,5.1h0c0,0,8,0,8,0v.6Z"/>
    <path class="st5" d="M120.7,121.7c0,2-.4,3.5-1.2,4.6s-1.9,1.6-3.3,1.6-2.5-.5-3.3-1.6-1.2-2.6-1.2-4.6v-3.2c0-2,.4-3.5,1.2-4.6.8-1.1,1.9-1.6,3.3-1.6s2.5.5,3.3,1.6,1.2,2.6,1.2,4.6v3.2ZM120.2,118.5c0-1.8-.3-3.1-1-4.1-.7-1-1.6-1.5-2.9-1.5s-2.2.5-2.9,1.5c-.7,1-1,2.4-1,4.1v3.2c0,1.7.3,3.1,1,4.1s1.6,1.5,2.9,1.5,2.2-.5,2.9-1.5c.7-1,1-2.4,1-4.1v-3.2Z"/>
    <path class="st5" d="M131.5,127.6h-8.8v-.6l4.8-5.7c.9-1.1,1.6-2,2-2.8.4-.8.6-1.5.6-2.2,0-1.1-.3-2-.9-2.6s-1.5-.9-2.6-.9-2.1.4-2.8,1.1c-.7.7-1,1.7-1,2.8h-.5c0-1.3.3-2.3,1.1-3.2.8-.9,1.8-1.3,3.1-1.3s2.2.4,2.9,1.1c.7.7,1.1,1.7,1.1,3s-.3,1.7-.8,2.6c-.5.9-1.3,1.9-2.2,3l-4.2,5.1h0c0,0,8,0,8,0v.6Z"/>
    <path class="st5" d="M133.5,120.7l.8-8.2h6.9v.5h-6.4l-.6,6.4c.4-.4.9-.8,1.4-1s1.2-.3,2.2-.4c1.2,0,2.1.4,2.9,1.2.8.9,1.1,2,1.1,3.5s-.4,2.8-1.1,3.7c-.7.9-1.8,1.4-3.3,1.4s-2.2-.3-3-1c-.8-.7-1.2-1.7-1.1-3.1h0c0,0,.5,0,.5,0,0,1.2.3,2.1,1,2.7.6.6,1.5.9,2.6.9s2.3-.4,2.9-1.1c.6-.7.9-1.9.9-3.3s-.3-2.3-.9-3-1.5-1.1-2.5-1.1-1.9.2-2.5.6-1.1.9-1.3,1.6l-.4-.2Z"/>
  </g>
</svg>